<?xml version="1.0" encoding="UTF-8"?>
<!--Generator: Apple Native CoreSVG 360-->
<!DOCTYPE svg
PUBLIC "-//W3C//DTD SVG 1.1//EN"
       "http://www.w3.org/Graphics/SVG/1.1/DTD/svg11.dtd">
<svg version="1.1" xmlns="http://www.w3.org/2000/svg" xmlns:xlink="http://www.w3.org/1999/xlink" viewBox="0 0 125.478 80.4269">
 <g>
  <rect height="80.4269" opacity="0" width="125.478" x="0" y="0"/>
  <path d="M16.5431 80.3315L108.919 80.3315C119.697 80.3315 125.478 74.6323 125.478 63.9215L125.478 16.3766C125.478 5.71473 119.697 0 108.919 0L16.5431 0C5.71473 0 0 5.68143 0 16.3766L0 63.9215C0 74.6323 5.71473 80.3315 16.5431 80.3315ZM17.4482 69.4579C13.1709 69.4579 10.8736 67.2715 10.8736 62.7834L10.8736 17.5303C10.8736 13.0267 13.1709 10.8736 17.4482 10.8736L107.981 10.8736C112.24 10.8736 114.604 13.0267 114.604 17.5303L114.604 62.7834C114.604 67.2715 112.24 69.4579 107.981 69.4579Z" fill="white" fill-opacity="0.85"/>
  <path d="M21.6294 29.2734L25.103 29.2734C26.0262 29.2734 26.6254 28.6409 26.6254 27.6333L26.6254 21.854C26.6254 20.8619 26.0262 20.2138 25.103 20.2138L21.6294 20.2138C20.6884 20.2138 20.0559 20.8619 20.0559 21.854L20.0559 27.6333C20.0559 28.6409 20.6884 29.2734 21.6294 29.2734ZM32.0611 29.2734L35.5013 29.2734C36.4579 29.2734 37.0571 28.6409 37.0571 27.6333L37.0571 21.854C37.0571 20.8619 36.4579 20.2138 35.5013 20.2138L32.0611 20.2138C31.0712 20.2138 30.472 20.8619 30.472 21.854L30.472 27.6333C30.472 28.6409 31.0712 29.2734 32.0611 29.2734ZM42.4594 29.2734L45.933 29.2734C46.8407 29.2734 47.4399 28.6409 47.4399 27.6333L47.4399 21.854C47.4399 20.8619 46.8407 20.2138 45.933 20.2138L42.4594 20.2138C41.5029 20.2138 40.8704 20.8619 40.8704 21.854L40.8704 27.6333C40.8704 28.6409 41.5029 29.2734 42.4594 29.2734ZM52.8423 29.2734L56.2825 29.2734C57.239 29.2734 57.8716 28.6409 57.8716 27.6333L57.8716 21.854C57.8716 20.8619 57.239 20.2138 56.2825 20.2138L52.8423 20.2138C51.9012 20.2138 51.302 20.8619 51.302 21.854L51.302 27.6333C51.302 28.6409 51.9012 29.2734 52.8423 29.2734ZM63.3648 29.2734L66.7474 29.2734C67.6707 29.2734 68.2699 28.6409 68.2699 27.6333L68.2699 21.854C68.2699 20.8619 67.6707 20.2138 66.7474 20.2138L63.3648 20.2138C62.3462 20.2138 61.6848 20.8619 61.6848 21.854L61.6848 27.6333C61.6848 28.6409 62.3462 29.2734 63.3648 29.2734ZM73.7055 29.2734L77.1125 29.2734C78.0535 29.2734 78.686 28.6409 78.686 27.6333L78.686 21.854C78.686 20.8619 78.0535 20.2138 77.1125 20.2138L73.7055 20.2138C72.7157 20.2138 72.1165 20.8619 72.1165 21.854L72.1165 27.6333C72.1165 28.6409 72.7157 29.2734 73.7055 29.2734ZM21.6294 44.6677L25.103 44.6677C26.0262 44.6677 26.6254 44.0685 26.6254 43.0276L26.6254 37.2816C26.6254 36.2407 26.0262 35.6415 25.103 35.6415L21.6294 35.6415C20.6884 35.6415 20.0559 36.2407 20.0559 37.2816L20.0559 43.0276C20.0559 44.0685 20.6884 44.6677 21.6294 44.6677ZM32.0611 44.6677L35.5013 44.6677C36.4579 44.6677 37.0571 44.0685 37.0571 43.0276L37.0571 37.2816C37.0571 36.2407 36.4579 35.6415 35.5013 35.6415L32.0611 35.6415C31.0712 35.6415 30.472 36.2407 30.472 37.2816L30.472 43.0276C30.472 44.0685 31.0712 44.6677 32.0611 44.6677ZM42.4594 44.6677L45.933 44.6677C46.8407 44.6677 47.4399 44.0685 47.4399 43.0276L47.4399 37.2816C47.4399 36.2407 46.8407 35.6415 45.933 35.6415L42.4594 35.6415C41.5029 35.6415 40.8704 36.2407 40.8704 37.2816L40.8704 43.0276C40.8704 44.0685 41.5029 44.6677 42.4594 44.6677ZM52.8423 44.6677L56.2825 44.6677C57.239 44.6677 57.8716 44.0685 57.8716 43.0276L57.8716 37.2816C57.8716 36.2407 57.239 35.6415 56.2825 35.6415L52.8423 35.6415C51.9012 35.6415 51.302 36.2407 51.302 37.2816L51.302 43.0276C51.302 44.0685 51.9012 44.6677 52.8423 44.6677ZM63.3648 44.6677L66.7474 44.6677C67.6707 44.6677 68.2699 44.0685 68.2699 43.0276L68.2699 37.2816C68.2699 36.2407 67.6707 35.6415 66.7474 35.6415L63.3648 35.6415C62.3462 35.6415 61.6848 36.2407 61.6848 37.2816L61.6848 43.0276C61.6848 44.0685 62.3462 44.6677 63.3648 44.6677ZM73.7055 44.6677L77.1125 44.6677C78.0535 44.6677 78.686 44.0685 78.686 43.0276L78.686 37.2816C78.686 36.2407 78.0535 35.6415 77.1125 35.6415L73.7055 35.6415C72.7157 35.6415 72.1165 36.2407 72.1165 37.2816L72.1165 43.0276C72.1165 44.0685 72.7157 44.6677 73.7055 44.6677ZM21.6294 60.0954L25.103 60.0954C26.0262 60.0954 26.6254 59.4629 26.6254 58.4552L26.6254 52.676C26.6254 51.6683 26.0262 51.0358 25.103 51.0358L21.6294 51.0358C20.6884 51.0358 20.0559 51.6683 20.0559 52.676L20.0559 58.4552C20.0559 59.4629 20.6884 60.0954 21.6294 60.0954ZM32.0611 60.0954L66.7474 60.0954C67.6707 60.0954 68.2699 59.4629 68.2699 58.4552L68.2699 52.676C68.2699 51.6683 67.6707 51.0358 66.7474 51.0358L32.0611 51.0358C31.0712 51.0358 30.472 51.6683 30.472 52.676L30.472 58.4552C30.472 59.4629 31.0712 60.0954 32.0611 60.0954ZM73.7055 60.0954L77.1125 60.0954C78.0535 60.0954 78.686 59.4629 78.686 58.4552L78.686 52.676C78.686 51.6683 78.0535 51.0358 77.1125 51.0358L73.7055 51.0358C72.7157 51.0358 72.1165 51.6683 72.1165 52.676L72.1165 58.4552C72.1165 59.4629 72.7157 60.0954 73.7055 60.0954ZM86.9224 37.2062C84.9605 38.9928 84.9605 41.3209 86.9224 43.092L100.329 55.4906C102.299 57.255 105.255 56.4649 105.255 53.704L105.255 26.5942C105.255 23.8821 102.299 23.0765 100.329 24.8409Z" fill="white" fill-opacity="0.85"/>
 </g>
</svg>
